<svg width="512" height="512" viewBox="0 0 512 512" fill="none" xmlns="http://www.w3.org/2000/svg">
  <!-- Loupe handle -->
  <path d="M150 380 L50 480 L80 510 L180 410 Z" fill="#334155" stroke="#1e293b" stroke-width="8"/>
  
  <!-- Loupe circle outer -->
  <circle cx="280" cy="240" r="180" fill="none" stroke="#1e40af" stroke-width="16"/>
  
  <!-- Loupe circle inner -->
  <circle cx="280" cy="240" r="160" fill="#0f172a" stroke="#334155" stroke-width="4"/>
  
  <!-- Gauge segments -->
  <path d="M 200 240 A 80 80 0 0 1 280 160" fill="none" stroke="#64748b" stroke-width="20" stroke-linecap="round"/>
  <path d="M 280 160 A 80 80 0 0 1 360 240" fill="none" stroke="#0ea5e9" stroke-width="20" stroke-linecap="round"/>
  <path d="M 360 240 A 80 80 0 0 1 320 300" fill="none" stroke="#14b8a6" stroke-width="20" stroke-linecap="round"/>
  
  <!-- Gauge needle -->
  <line x1="280" y1="240" x2="340" y2="200" stroke="#f8fafc" stroke-width="6" stroke-linecap="round"/>
  <circle cx="280" cy="240" r="12" fill="#f8fafc"/>
  
  <!-- Performance wave -->
  <path d="M 380 240 L 400 220 L 420 240 L 440 200 L 460 240" fill="none" stroke="#14b8a6" stroke-width="8" stroke-linecap="round" stroke-linejoin="round"/>
</svg>
